<?xml version="1.0" standalone="no"?>
<!DOCTYPE svg PUBLIC "-//W3C//DTD SVG 20010904//EN"
 "http://www.w3.org/TR/2001/REC-SVG-20010904/DTD/svg10.dtd">
<svg version="1.0" xmlns="http://www.w3.org/2000/svg"
 width="512.000000pt" height="512.000000pt" viewBox="0 0 512.000000 512.000000"
 preserveAspectRatio="xMidYMid meet">

<g transform="translate(0.000000,512.000000) scale(0.100000,-0.100000)"
fill="#000000" stroke="none">
<path d="M2245 4388 c-549 -62 -1060 -384 -1352 -853 -337 -540 -370 -1231
-86 -1799 87 -172 194 -321 341 -470 272 -277 610 -452 1007 -522 138 -24 450
-25 590 -1 229 40 453 121 640 232 60 36 113 65 117 65 4 0 8 4 8 8 0 4 15 16
33 27 17 10 41 27 52 38 11 10 38 33 59 50 22 18 53 47 70 65 17 19 49 53 71
75 59 61 125 143 125 155 0 6 6 15 14 19 7 4 21 23 30 40 9 18 21 33 26 33 6
0 10 6 10 14 0 8 6 21 13 28 24 25 67 98 67 113 0 8 3 15 8 15 7 0 25 37 37
80 4 14 14 34 21 45 8 11 14 26 14 34 0 8 8 33 19 55 24 53 51 154 66 252 2
12 8 31 14 42 6 11 10 31 10 44 -1 19 -3 18 -9 -7 -7 -27 -8 -28 -8 -5 -1 44
24 176 30 155 7 -30 -3 193 -12 250 -7 46 -8 47 -9 13 l-1 -38 -360 0 c-353 0
-360 0 -360 -20 0 -11 -4 -20 -10 -20 -6 0 -10 -27 -10 -60 0 -57 -1 -60 -24
-60 -25 0 -25 -1 -20 -72 4 -57 3 -70 -6 -58 -10 13 -11 12 -6 -3 3 -10 6 -21
6 -23 0 -2 11 -4 25 -4 32 0 28 -23 -5 -30 -19 -4 -26 -1 -31 15 -4 14 -12 1
-28 -50 -189 -574 -796 -862 -1359 -645 -91 35 -229 122 -308 193 -119 108
-223 264 -276 418 -47 134 -53 176 -53 344 1 134 5 174 24 244 49 184 138 338
271 472 175 176 385 275 635 298 466 45 915 -253 1061 -703 25 -78 26 -77 24
5 -1 35 3 60 11 64 9 6 10 1 7 -19 -3 -14 -1 -29 3 -32 5 -3 9 21 8 53 -1 41
-3 51 -8 33 -7 -25 -7 -25 -13 5 -3 17 -4 246 -3 510 2 472 8 555 37 576 11 7
-178 120 -275 164 -295 133 -652 190 -972 153z m2002 -1895 c-2 -16 -4 -3 -4
27 0 30 2 43 4 28 2 -16 2 -40 0 -55z m10 -80 c-3 -10 -5 -4 -5 12 0 17 2 24
5 18 2 -7 2 -21 0 -30z"/>
<path d="M3473 3250 c0 -30 2 -43 4 -27 2 15 2 39 0 55 -2 15 -4 2 -4 -28z"/>
<path d="M3464 2784 c-1 -13 2 -21 7 -18 11 6 12 31 2 37 -5 3 -9 -6 -9 -19z"/>
<path d="M3486 2693 c9 -36 14 -42 14 -15 0 12 5 22 10 22 6 0 10 5 10 10 0 6
-9 10 -20 10 -17 0 -19 -4 -14 -27z"/>
<path d="M3472 2660 c0 -14 2 -19 5 -12 2 6 2 18 0 25 -3 6 -5 1 -5 -13z"/>
</g>
</svg>
