<?xml version="1.0" standalone="no"?>
<!DOCTYPE svg PUBLIC "-//W3C//DTD SVG 20010904//EN"
 "http://www.w3.org/TR/2001/REC-SVG-20010904/DTD/svg10.dtd">
<svg version="1.0" xmlns="http://www.w3.org/2000/svg"
 width="500.000000pt" height="500.000000pt" viewBox="0 0 500.000000 500.000000"
 preserveAspectRatio="xMidYMid meet">

<g transform="translate(0.000000,500.000000) scale(0.100000,-0.100000)"
fill="#000000" stroke="none">
<path d="M2428 4984 c-2 -5 -211 -563 -464 -1240 l-459 -1231 -752 -429 c-541
-309 -752 -434 -753 -446 0 -14 9 -18 43 -18 23 0 418 20 877 45 459 24 864
45 899 47 l63 3 273 -848 c150 -466 275 -850 277 -852 2 -3 150 386 327 863
178 477 327 871 331 875 3 4 429 -24 945 -63 516 -38 944 -70 952 -70 61 0
-58 67 -809 454 -450 232 -822 426 -827 431 -5 6 -209 557 -454 1225 -245 668
-450 1226 -455 1239 -5 14 -11 20 -14 15z m461 -2241 l441 -663 -262 0 -263 0
-185 -290 c-114 -178 -187 -285 -192 -277 -4 7 -81 136 -171 287 l-163 275
-306 5 -306 5 454 640 c250 352 464 653 475 668 12 16 25 25 29 20 4 -4 206
-306 449 -670z"/>
<path d="M2421 2795 l-43 -134 -150 -3 -150 -3 48 -35 c27 -19 81 -58 121 -87
l72 -53 -45 -132 c-24 -73 -43 -136 -42 -139 2 -4 56 31 121 78 l117 84 117
-85 c65 -46 119 -84 120 -82 1 1 -18 64 -43 140 -25 76 -44 139 -42 140 2 2
56 41 122 87 l118 84 -151 3 -151 3 -42 134 c-23 74 -45 135 -48 135 -4 0 -26
-61 -49 -135z m79 -117 l25 -73 80 -5 80 -5 -62 -44 c-35 -25 -63 -50 -63 -56
0 -7 9 -38 20 -70 11 -33 19 -63 17 -68 -1 -5 -31 12 -65 37 l-62 46 -68 -49
c-37 -27 -68 -48 -69 -47 -2 2 8 36 22 76 14 40 25 76 25 80 0 3 -28 26 -62
51 l-63 44 80 5 80 5 25 73 c14 39 27 72 30 72 3 0 16 -33 30 -72z"/>
</g>
</svg>
